# xmcd
# 
# Track frame offsets:
#     150
#     18845
#     33409
#     48631
#     64397
#     72294
#     89332
#     106021
#     120252
#     134883
#     145712
#     158917
#     173821
#     200484
# 
# Disc length: 2793
# 
# Revision: 3
# Processed by: cddbd v1.5.2PL0 Copyright (c) Steve Scherf et al.
# Submitted via: fre:ac v1.0.31
# 
DISCID=c30ae70e
DTITLE=Kasey Chambers - Little Bird
DYEAR=2010
DGENRE=Country
TTITLE0=Someone Like Me
TTITLE1=Beautiful Mess
TTITLE2=Devil On Your Back
TTITLE3=Little Bird
TTITLE4=Georgia Brown
TTITLE5=Somewhere
TTITLE6=This Story
TTITLE7=Love Like A Hurricane
TTITLE8=Down Here On Earth
TTITLE9=Nullarbor (The Biggest Backyard)
TTITLE10=Bring Back My Heart
TTITLE11=Invisible Girl
TTITLE12=Train Wreck
TTITLE13=I Love You (Hidden Track)
EXTD=
EXTT0=
EXTT1=
EXTT2=
EXTT3=
EXTT4=
EXTT5=
EXTT6=
EXTT7=
EXTT8=
EXTT9=
EXTT10=
EXTT11=
EXTT12=
EXTT13=
PLAYORDER=
